<svg width="101" height="36" viewBox="0 0 101 36" fill="none" xmlns="http://www.w3.org/2000/svg">
<path d="M4.752 17C3.63733 17 2.772 16.7067 2.156 16.12C1.54 15.5333 1.232 14.712 1.232 13.656V4.856C1.232 3.82933 1.52533 3.03 2.112 2.458C2.71333 1.886 3.542 1.6 4.598 1.6H11.44C11.88 1.6 12.2173 1.70267 12.452 1.908C12.6867 2.09867 12.804 2.37733 12.804 2.744C12.804 3.096 12.6793 3.37467 12.43 3.58C12.1953 3.77067 11.8653 3.866 11.44 3.866H5.104C4.81067 3.866 4.576 3.96133 4.4 4.152C4.23867 4.34267 4.158 4.60667 4.158 4.944V8.002H9.768C10.208 8.002 10.5453 8.10467 10.78 8.31C11.0147 8.50067 11.132 8.77933 11.132 9.146C11.132 9.498 11.0073 9.77667 10.758 9.982C10.5233 10.1727 10.1933 10.268 9.768 10.268H4.158V13.656C4.158 13.9933 4.23867 14.2573 4.4 14.448C4.576 14.6387 4.81067 14.734 5.104 14.734H11.924C12.364 14.734 12.7013 14.8367 12.936 15.042C13.1707 15.2327 13.288 15.5113 13.288 15.878C13.288 16.23 13.1633 16.5087 12.914 16.714C12.6793 16.9047 12.3493 17 11.924 17H4.752ZM16.8826 17.22C16.4426 17.22 16.0906 17.1027 15.8266 16.868C15.5626 16.6333 15.4306 16.3107 15.4306 15.9V7.606C15.4306 5.65533 16.0393 4.13 17.2566 3.03C18.4739 1.93 20.1606 1.38 22.3166 1.38C24.4726 1.38 26.1593 1.93 27.3766 3.03C28.5939 4.13 29.2026 5.65533 29.2026 7.606V15.9C29.2026 16.3107 29.0706 16.6333 28.8066 16.868C28.5426 17.1027 28.1906 17.22 27.7506 17.22C27.3106 17.22 26.9513 17.1027 26.6726 16.868C26.4086 16.6187 26.2766 16.296 26.2766 15.9V7.54C26.2766 6.29333 25.9393 5.34 25.2646 4.68C24.5899 4.02 23.6073 3.69 22.3166 3.69C21.0259 3.69 20.0433 4.02 19.3686 4.68C18.6939 5.34 18.3566 6.29333 18.3566 7.54V15.9C18.3566 16.296 18.2173 16.6187 17.9386 16.868C17.6746 17.1027 17.3226 17.22 16.8826 17.22ZM39.1856 17.22C37.5283 17.22 36.0909 16.9047 34.8736 16.274C33.6563 15.6433 32.7249 14.734 32.0796 13.546C31.4343 12.358 31.1116 10.95 31.1116 9.322C31.1116 7.694 31.4343 6.286 32.0796 5.098C32.7249 3.89533 33.6489 2.97867 34.8516 2.348C36.0689 1.70267 37.4989 1.38 39.1416 1.38C40.5056 1.38 41.7669 1.61467 42.9256 2.084C44.0843 2.55333 44.9423 3.17667 45.4996 3.954C45.6756 4.18867 45.7636 4.43067 45.7636 4.68C45.7636 5.04667 45.5656 5.37667 45.1696 5.67C44.9936 5.802 44.7736 5.868 44.5096 5.868C44.2896 5.868 44.0696 5.824 43.8496 5.736C43.6296 5.63333 43.4463 5.494 43.2996 5.318C42.8009 4.746 42.2216 4.33533 41.5616 4.086C40.9016 3.822 40.0949 3.69 39.1416 3.69C37.5429 3.69 36.2963 4.18867 35.4016 5.186C34.5069 6.16867 34.0596 7.54733 34.0596 9.322C34.0596 11.082 34.5069 12.4533 35.4016 13.436C36.3109 14.4187 37.5723 14.91 39.1856 14.91C40.5203 14.91 41.5616 14.6533 42.3096 14.14C43.0723 13.6267 43.4536 12.9153 43.4536 12.006V11.522C43.4536 11.214 43.3803 11.0013 43.2336 10.884C43.1016 10.7667 42.8669 10.708 42.5296 10.708H39.6476C39.2369 10.708 38.9143 10.6127 38.6796 10.422C38.4449 10.2167 38.3276 9.938 38.3276 9.586C38.3276 9.21933 38.4376 8.94067 38.6576 8.75C38.8923 8.54467 39.2223 8.442 39.6476 8.442H43.9156C44.7663 8.442 45.3896 8.62533 45.7856 8.992C46.1816 9.344 46.3796 9.90867 46.3796 10.686V11.544C46.3796 12.6587 46.0789 13.6487 45.4776 14.514C44.8763 15.3647 44.0256 16.032 42.9256 16.516C41.8403 16.9853 40.5936 17.22 39.1856 17.22ZM52.1465 17C51.0319 17 50.1665 16.7067 49.5505 16.12C48.9345 15.5333 48.6265 14.712 48.6265 13.656V2.7C48.6265 2.28933 48.7585 1.96667 49.0225 1.732C49.2865 1.49733 49.6385 1.38 50.0785 1.38C50.5185 1.38 50.8705 1.50467 51.1345 1.754C51.4132 1.98867 51.5525 2.304 51.5525 2.7V13.656C51.5525 13.9933 51.6332 14.2573 51.7945 14.448C51.9705 14.6387 52.2052 14.734 52.4985 14.734H59.5385C59.9785 14.734 60.3159 14.8367 60.5505 15.042C60.7852 15.2327 60.9025 15.5113 60.9025 15.878C60.9025 16.23 60.7779 16.5087 60.5285 16.714C60.2939 16.9047 59.9639 17 59.5385 17H52.1465ZM64.8108 17.22C64.3708 17.22 64.0188 17.1027 63.7548 16.868C63.4908 16.6333 63.3588 16.3107 63.3588 15.9V2.7C63.3588 2.28933 63.4908 1.96667 63.7548 1.732C64.0188 1.49733 64.3708 1.38 64.8108 1.38C65.2361 1.38 65.5881 1.49733 65.8668 1.732C66.1455 1.96667 66.2848 2.28933 66.2848 2.7V15.9C66.2848 16.3107 66.1455 16.6333 65.8668 16.868C65.5881 17.1027 65.2361 17.22 64.8108 17.22ZM76.8379 17.22C75.4006 17.22 74.0513 16.9853 72.7899 16.516C71.5286 16.032 70.4359 15.3427 69.5119 14.448C69.2919 14.228 69.1819 13.9787 69.1819 13.7C69.1819 13.3773 69.3286 13.0693 69.6219 12.776C69.8566 12.5413 70.1133 12.424 70.3919 12.424C70.6853 12.424 71.0373 12.5927 71.4479 12.93C72.1373 13.5607 72.9513 14.052 73.8899 14.404C74.8433 14.7413 75.8259 14.91 76.8379 14.91C77.8059 14.91 78.5613 14.7487 79.1039 14.426C79.6466 14.0887 79.9179 13.6193 79.9179 13.018C79.9179 12.3873 79.6246 11.8813 79.0379 11.5C78.4513 11.104 77.4539 10.752 76.0459 10.444C73.8313 9.96 72.2179 9.322 71.2059 8.53C70.2086 7.738 69.7099 6.71867 69.7099 5.472C69.7099 4.68 69.9739 3.976 70.5019 3.36C71.0299 2.72933 71.7633 2.24533 72.7019 1.908C73.6553 1.556 74.7406 1.38 75.9579 1.38C77.3219 1.38 78.5319 1.60733 79.5879 2.062C80.6586 2.502 81.4726 3.12533 82.0299 3.932C82.2206 4.24 82.3159 4.504 82.3159 4.724C82.3013 5.09067 82.1179 5.406 81.7659 5.67C81.5753 5.802 81.3553 5.868 81.1059 5.868C80.6513 5.868 80.2773 5.692 79.9839 5.34C79.5586 4.82667 78.9866 4.42333 78.2679 4.13C77.5639 3.83667 76.7939 3.69 75.9579 3.69C74.9166 3.69 74.1026 3.85133 73.5159 4.174C72.9439 4.482 72.6579 4.91467 72.6579 5.472C72.6579 6.02933 72.9366 6.49133 73.4939 6.858C74.0659 7.21 75.0486 7.54733 76.4419 7.87C77.9819 8.23667 79.2213 8.65467 80.1599 9.124C81.0986 9.57867 81.7806 10.1213 82.2059 10.752C82.6459 11.3827 82.8659 12.138 82.8659 13.018C82.8659 13.854 82.6166 14.5947 82.1179 15.24C81.6193 15.8707 80.9153 16.362 80.0059 16.714C79.0966 17.0513 78.0406 17.22 76.8379 17.22ZM86.559 17.22C86.119 17.22 85.767 17.1027 85.503 16.868C85.239 16.6333 85.107 16.3107 85.107 15.9V2.7C85.107 2.28933 85.239 1.96667 85.503 1.732C85.767 1.49733 86.119 1.38 86.559 1.38C86.999 1.38 87.351 1.50467 87.615 1.754C87.8937 1.98867 88.033 2.304 88.033 2.7V7.958H95.931V2.7C95.931 2.304 96.063 1.98867 96.327 1.754C96.6057 1.50467 96.965 1.38 97.405 1.38C97.845 1.38 98.197 1.49733 98.461 1.732C98.725 1.96667 98.857 2.28933 98.857 2.7V15.9C98.857 16.3107 98.725 16.6333 98.461 16.868C98.197 17.1027 97.845 17.22 97.405 17.22C96.965 17.22 96.6057 17.1027 96.327 16.868C96.063 16.6187 95.931 16.296 95.931 15.9V10.224H88.033V15.9C88.033 16.296 87.8937 16.6187 87.615 16.868C87.351 17.1027 86.999 17.22 86.559 17.22Z" fill="#EBC13A"/>
<path d="M22.536 31.07C23.328 31.07 24.032 30.814 24.504 30.43C24.976 30.046 25.28 29.622 25.432 29.182L24.536 28.774C24.384 29.182 24.12 29.518 23.752 29.774C23.392 30.022 22.992 30.15 22.56 30.15C21.984 30.15 21.48 29.934 21.056 29.51C20.632 29.078 20.424 28.526 20.424 27.854C20.424 27.174 20.64 26.63 21.064 26.206C21.488 25.782 21.992 25.566 22.56 25.566C23.544 25.566 24.2 26.126 24.512 26.934L25.4 26.526C25.264 26.078 24.96 25.654 24.512 25.278C24.064 24.894 23.368 24.646 22.576 24.646C21.704 24.646 20.96 24.958 20.328 25.574C19.696 26.19 19.384 26.958 19.384 27.886C19.384 28.87 19.768 29.71 20.368 30.246C20.968 30.766 21.736 31.07 22.536 31.07ZM40.2559 30.086V24.734H39.2719V30.998H43.0799V30.086H40.2559ZM60.4269 24.734V28.606C60.4269 29.526 59.8829 30.15 58.9789 30.15C58.1149 30.15 57.5229 29.542 57.5229 28.574V24.734H56.5389V28.614C56.5389 29.342 56.7469 29.942 57.1549 30.398C57.5629 30.854 58.1709 31.078 58.9629 31.078C59.7549 31.078 60.3629 30.854 60.7789 30.398C61.2029 29.942 61.4109 29.326 61.4109 28.566V24.734H60.4269ZM75.7391 30.998H78.2111C79.6591 30.998 80.4351 30.302 80.4351 29.246C80.4351 28.942 80.3471 28.646 80.1631 28.366C79.9791 28.086 79.6751 27.87 79.2431 27.734C79.6991 27.534 79.9951 27.102 80.0831 26.814C80.1231 26.662 80.1471 26.518 80.1471 26.382C80.1471 25.87 79.9631 25.47 79.5951 25.174C79.2271 24.878 78.7391 24.734 78.1311 24.734H75.7391V30.998ZM76.7151 25.622H78.0031C78.8031 25.622 79.1631 25.966 79.1631 26.486C79.1631 27.006 78.7551 27.382 77.9471 27.382H76.7151V25.622ZM76.7151 28.246H78.1631C79.0271 28.246 79.4511 28.622 79.4511 29.166C79.4511 29.734 79.0191 30.11 78.2271 30.11H76.7151V28.246Z" fill="#0A4771"/>
</svg>
