<svg width="24" height="24" viewBox="0 0 24 24" fill="none" xmlns="http://www.w3.org/2000/svg">
<path d="M21.9955 21.9946H22.0001V14.9425C22.0001 11.4929 21.2579 8.83483 17.2298 8.83483C16.4737 8.80715 15.7243 8.98531 15.0613 9.35033C14.3984 9.71535 13.8468 10.2536 13.4652 10.9076H13.4091V9.15709H9.58691V21.9938H13.5643V15.6378C13.5643 13.9641 13.8816 12.3459 15.9514 12.3459C17.9912 12.3459 18.0219 14.2556 18.0219 15.7454V21.9954L21.9955 21.9946Z" fill="#9E9E9E"/>
<path d="M2.34204 9.1626H6.32099V22.0001H2.34204V9.1626Z" fill="#9E9E9E"/>
<path d="M4.32941 2.00003C3.87008 1.9976 3.4204 2.13189 3.03747 2.38584C2.65454 2.63979 2.35564 3.00195 2.17874 3.42632C2.00184 3.85068 1.95491 4.31811 2.04393 4.76923C2.13294 5.22035 2.35388 5.6348 2.67868 5.95996C3.00348 6.28511 3.41748 6.50629 3.8681 6.5954C4.31873 6.68451 4.78564 6.63754 5.20954 6.46044C5.63345 6.28335 5.99521 5.98412 6.24888 5.60077C6.50256 5.21742 6.6367 4.76724 6.63427 4.30741C6.63427 3.69546 6.39143 3.10857 5.95919 2.67585C5.52694 2.24313 4.9407 2.00003 4.32941 2.00003Z" fill="#9E9E9E"/>
</svg>
