<svg width="24" height="24" viewBox="0 0 24 24" fill="none" xmlns="http://www.w3.org/2000/svg">
<path d="M22 5.89562C21.2475 6.21839 20.4517 6.43275 19.6371 6.5321C20.4955 6.03072 21.1373 5.23675 21.4409 4.30064C20.6372 4.76983 19.7578 5.10022 18.8409 5.27749C18.2787 4.68635 17.5488 4.27538 16.7462 4.09801C15.9436 3.92063 15.1054 3.98505 14.3405 4.28289C13.5755 4.58074 12.9193 5.09823 12.457 5.76811C11.9948 6.43799 11.7479 7.22928 11.7484 8.03914C11.7452 8.34852 11.7771 8.65728 11.8435 8.95969C10.2124 8.88088 8.61658 8.46404 7.16031 7.73642C5.70405 7.0088 4.42015 5.98679 3.39254 4.73719C2.86479 5.6253 2.70132 6.67827 2.93552 7.68105C3.16973 8.68382 3.78394 9.56073 4.6527 10.1327C4.00331 10.1146 3.36787 9.94298 2.80005 9.63223V9.67651C2.80126 10.6086 3.12856 11.5119 3.72687 12.2342C4.32517 12.9566 5.15796 13.454 6.08508 13.6428C5.73428 13.7338 5.37275 13.7785 5.00999 13.7756C4.74947 13.7802 4.48921 13.7571 4.23372 13.7067C4.49811 14.5085 5.00856 15.2098 5.69473 15.7141C6.3809 16.2183 7.20902 16.5006 8.06497 16.5221C6.6136 17.6395 4.82368 18.2456 2.98127 18.2436C2.65332 18.2459 2.32556 18.2275 2 18.1886C3.87486 19.378 6.05954 20.0071 8.28988 19.9999C15.8348 19.9999 19.9597 13.8465 19.9597 8.51302C19.9597 8.3346 19.9533 8.16251 19.9449 7.99106C20.7536 7.42137 21.45 6.71128 22 5.89562Z" fill="#9E9E9E"/>
</svg>
