<svg width="24" height="24" viewBox="0 0 24 24" fill="none" xmlns="http://www.w3.org/2000/svg">
<path d="M21.9377 7.87614C21.9211 7.04661 21.764 6.2259 21.4731 5.44888C21.2225 4.78201 20.8296 4.17778 20.3217 3.67827C19.8218 3.16934 19.2168 2.77567 18.5489 2.52473C17.7719 2.23378 16.9512 2.07667 16.1217 2.0601C15.0553 2.01173 14.7145 2 11.9993 2C9.28399 2 8.94247 2.01173 7.87614 2.0601C7.04686 2.07679 6.2264 2.2339 5.44962 2.52473C4.78228 2.77581 4.17777 3.16948 3.67827 3.67827C3.16959 4.17758 2.77593 4.78182 2.52473 5.44888C2.23379 6.2259 2.07668 7.04661 2.0601 7.87614C2.01173 8.94247 2 9.28325 2 11.9985C2 14.7138 2.01173 15.0546 2.0601 16.1209C2.07666 16.9505 2.23376 17.7712 2.52473 18.5482C2.77551 19.2163 3.16919 19.8216 3.67827 20.3217C4.17774 20.8306 4.78226 21.2242 5.44962 21.4753C6.22661 21.7663 7.04734 21.9234 7.87688 21.9399C8.9432 21.9883 9.28399 22 11.9993 22C14.7145 22 15.0553 21.9883 16.1217 21.9399C16.9512 21.9234 17.7719 21.7663 18.5489 21.4753C19.2131 21.2184 19.8163 20.8256 20.3199 20.3221C20.8234 19.8185 21.2162 19.2153 21.4731 18.5511C21.764 17.7741 21.9211 16.9534 21.9377 16.1239C21.9861 15.0575 21.9978 14.7167 21.9978 12.0015C21.9978 9.28619 21.9861 8.94247 21.9377 7.87614ZM20.1378 16.0396C20.1302 16.6735 20.0137 17.3015 19.7933 17.8959C19.6271 18.3272 19.3724 18.7189 19.0456 19.0459C18.7188 19.3728 18.3272 19.6276 17.8959 19.7941C17.3015 20.0144 16.6735 20.1309 16.0396 20.1385C14.9857 20.1869 14.6691 20.1971 11.9993 20.1971C9.32942 20.1971 9.01282 20.1869 7.95896 20.1385C7.3255 20.1307 6.69809 20.0142 6.10407 19.7941C5.66968 19.6337 5.27676 19.378 4.9542 19.0458C4.62118 18.7235 4.36473 18.3305 4.20374 17.8959C3.9834 17.3015 3.86689 16.6735 3.85929 16.0396C3.81092 14.985 3.80066 14.6691 3.80066 11.9993C3.80066 9.32942 3.81092 9.01282 3.85929 7.95896C3.86713 7.32551 3.98364 6.6981 4.20374 6.10407C4.36386 5.66892 4.61956 5.27523 4.952 4.952C5.27521 4.61971 5.66892 4.36424 6.10407 4.20447C6.69854 3.98411 7.32647 3.86759 7.96042 3.86002C9.01502 3.81165 9.33089 3.80139 12.0007 3.80139C14.6706 3.80139 14.9872 3.81165 16.041 3.86002C16.675 3.86764 17.3029 3.98415 17.8974 4.20447C18.3318 4.36488 18.7247 4.62056 19.0473 4.95273C19.3789 5.27588 19.6339 5.66932 19.7933 6.10407C20.0138 6.69852 20.1303 7.32646 20.1378 7.96042C20.1861 9.01502 20.1964 9.33089 20.1964 12.0007C20.1964 14.6706 20.1861 14.985 20.1378 16.0396Z" fill="#9E9E9E"/>
<path d="M12.0012 6.8667C10.9857 6.8667 9.99297 7.16783 9.14861 7.73202C8.30425 8.2962 7.64616 9.0981 7.25754 10.0363C6.86892 10.9745 6.76724 12.0069 6.96536 13.0029C7.16347 13.9989 7.65248 14.9137 8.37055 15.6318C9.08862 16.3499 10.0035 16.8389 10.9995 17.037C11.9955 17.2351 13.0279 17.1334 13.9661 16.7448C14.9043 16.3562 15.7062 15.6981 16.2703 14.8537C16.8345 14.0094 17.1357 13.0167 17.1357 12.0012C17.1357 10.6394 16.5947 9.33346 15.6318 8.37055C14.6689 7.40765 13.3629 6.8667 12.0012 6.8667ZM12.0012 15.3343C11.342 15.3343 10.6975 15.1388 10.1494 14.7725C9.60129 14.4063 9.17408 13.8857 8.92181 13.2767C8.66953 12.6677 8.60353 11.9975 8.73214 11.3509C8.86074 10.7044 9.17818 10.1105 9.64432 9.64432C10.1105 9.17818 10.7044 8.86074 11.3509 8.73214C11.9975 8.60353 12.6677 8.66953 13.2767 8.9218C13.8857 9.17408 14.4063 9.60129 14.7725 10.1494C15.1388 10.6975 15.3343 11.342 15.3343 12.0012C15.3343 12.8852 14.9831 13.733 14.358 14.358C13.733 14.9831 12.8852 15.3343 12.0012 15.3343Z" fill="#9E9E9E"/>
<path d="M18.53 6.66357C18.53 6.90085 18.4597 7.13281 18.3278 7.3301C18.196 7.52739 18.0086 7.68116 17.7894 7.77196C17.5702 7.86276 17.329 7.88652 17.0963 7.84023C16.8636 7.79394 16.6498 7.67968 16.482 7.51189C16.3142 7.34411 16.2 7.13034 16.1537 6.89762C16.1074 6.6649 16.1311 6.42368 16.2219 6.20446C16.3127 5.98525 16.4665 5.79788 16.6638 5.66606C16.8611 5.53423 17.093 5.46387 17.3303 5.46387C17.6485 5.46387 17.9536 5.59027 18.1786 5.81526C18.4036 6.04024 18.53 6.34539 18.53 6.66357Z" fill="#9E9E9E"/>
</svg>
