<svg width="76" height="88" viewBox="0 0 76 88" fill="none" xmlns="http://www.w3.org/2000/svg">
<path d="M5.88035 79.9967L0.0988581 69.8895C0.0342046 69.7762 0.000109583 69.6476 2.63712e-07 69.5167C-0.000109055 69.3858 0.0337711 69.2572 0.0982353 69.1438C0.1627 69.0304 0.255476 68.9362 0.36724 68.8706C0.479004 68.8051 0.605817 68.7705 0.734932 68.7704H4.2388C4.36963 68.7704 4.49807 68.8059 4.61086 68.8731C4.72365 68.9403 4.81668 69.0368 4.88034 69.1527L7.70224 74.2716C7.76608 74.3869 7.85906 74.4829 7.97161 74.5497C8.08417 74.6165 8.21225 74.6518 8.34268 74.6518C8.47311 74.6518 8.60119 74.6165 8.71375 74.5497C8.82631 74.4829 8.91929 74.3869 8.98313 74.2716L11.8444 69.1449C11.9086 69.0301 12.0017 68.9346 12.1142 68.8683C12.2267 68.8019 12.3546 68.767 12.4848 68.7671H15.8728C16.002 68.7673 16.1289 68.802 16.2406 68.8676C16.3524 68.9333 16.4451 69.0277 16.5095 69.1412C16.5739 69.2548 16.6076 69.3835 16.6073 69.5145C16.607 69.6454 16.5727 69.774 16.5078 69.8873L10.7088 79.9967C10.6435 80.1107 10.6092 80.2404 10.6094 80.3723V86.5771C10.6091 86.7747 10.5315 86.9642 10.3936 87.104C10.2558 87.2438 10.0688 87.3225 9.87385 87.3227H6.71425C6.51926 87.3225 6.33234 87.2438 6.19447 87.104C6.05659 86.9642 5.97901 86.7747 5.97872 86.5771V80.3723C5.97915 80.2405 5.94522 80.1109 5.88035 79.9967Z" fill="white"/>
<path d="M19.1609 86.3255V69.773C19.1609 69.5086 19.2645 69.2549 19.449 69.0679C19.6334 68.8809 19.8836 68.7758 20.1445 68.7758H22.7992C23.0601 68.7758 23.3102 68.8809 23.4947 69.0679C23.6792 69.2549 23.7828 69.5086 23.7828 69.773V73.6333C23.78 73.8466 23.8448 74.0553 23.9676 74.2285C24.0904 74.4018 24.2648 74.5305 24.4651 74.5959C24.6654 74.6612 24.8811 74.6597 25.0806 74.5915C25.28 74.5234 25.4526 74.3922 25.573 74.2172L29.1468 69.188C29.238 69.0593 29.3581 68.9545 29.4973 68.8822C29.6364 68.8099 29.7905 68.7723 29.9468 68.7725H32.9326C33.1152 68.7706 33.2947 68.8203 33.451 68.916C33.6074 69.0117 33.7343 69.1496 33.8177 69.3143C33.9011 69.479 33.9376 69.664 33.9231 69.8485C33.9087 70.033 33.8439 70.2099 33.7359 70.3592L28.9916 77.0072C28.8717 77.176 28.8064 77.3783 28.8048 77.5864C28.8033 77.7944 28.8655 77.9978 28.9829 78.1684L34.2234 85.7493C34.3282 85.899 34.3902 86.0751 34.4026 86.2582C34.4151 86.4413 34.3774 86.6244 34.2938 86.7872C34.2101 86.95 34.0838 87.0863 33.9287 87.1809C33.7736 87.2756 33.5957 87.325 33.4146 87.3238H30.1129C29.9507 87.3243 29.7908 87.2841 29.6476 87.2067C29.5044 87.1294 29.3823 87.0174 29.2922 86.8806L25.5959 81.2752C25.4796 81.095 25.3088 80.9578 25.1091 80.8842C24.9094 80.8106 24.6915 80.8045 24.4882 80.8668C24.2848 80.9292 24.1068 81.0567 23.9808 81.2302C23.8549 81.4036 23.7877 81.6138 23.7894 81.8292V86.3255C23.7894 86.5899 23.6857 86.8436 23.5013 87.0306C23.3168 87.2176 23.0666 87.3227 22.8057 87.3227H20.1478C20.0183 87.3231 19.8901 87.2976 19.7704 87.2477C19.6506 87.1978 19.5418 87.1244 19.4501 87.0318C19.3585 86.9391 19.2857 86.8291 19.2361 86.7079C19.1864 86.5867 19.1609 86.4567 19.1609 86.3255Z" fill="white"/>
<path d="M40.5436 87.3264H38.1129C37.8231 87.3264 37.5451 87.2097 37.3401 87.0019C37.1352 86.7941 37.02 86.5123 37.02 86.2184V69.8853C37.02 69.5915 37.1352 69.3097 37.3401 69.1019C37.5451 68.8941 37.8231 68.7773 38.1129 68.7773H40.5436C40.8334 68.7773 41.1114 68.8941 41.3164 69.1019C41.5213 69.3097 41.6365 69.5915 41.6365 69.8853V86.214C41.637 86.3599 41.6092 86.5044 41.5545 86.6393C41.4999 86.7743 41.4194 86.897 41.3179 87.0003C41.2164 87.1037 41.0957 87.1857 40.9628 87.2416C40.8299 87.2976 40.6874 87.3264 40.5436 87.3264Z" fill="white"/>
<path d="M45.4102 69.9835C45.4102 69.6623 45.536 69.3543 45.76 69.1272C45.9841 68.9001 46.2879 68.7725 46.6047 68.7725H52.5622C54.595 68.7725 56.254 69.2932 57.5163 70.3126C58.7786 71.3319 59.4093 72.8244 59.4093 74.7911C59.4093 76.8055 58.7316 78.3456 57.3994 79.3882C56.0671 80.4065 54.3611 80.9283 52.2813 80.9283H51.2091C50.8923 80.9283 50.5885 81.0559 50.3645 81.2831C50.1404 81.5102 50.0146 81.8182 50.0146 82.1394V86.1149C50.0143 86.436 49.8884 86.7439 49.6644 86.9709C49.4404 87.198 49.1368 87.3257 48.82 87.3259H46.6047C46.2879 87.3259 45.9841 87.1984 45.76 86.9712C45.536 86.7441 45.4102 86.4361 45.4102 86.1149V69.9835ZM50.0146 75.7363C50.0146 76.0574 50.1404 76.3655 50.3645 76.5926C50.5885 76.8197 50.8923 76.9473 51.2091 76.9473H52.2113C53.9174 76.9473 54.7819 76.2825 54.7819 74.9806C54.7819 73.5823 53.9174 72.8754 52.1873 72.8754H51.2091C50.8923 72.8754 50.5885 73.003 50.3645 73.2301C50.1404 73.4572 50.0146 73.7652 50.0146 74.0864V75.7363Z" fill="white"/>
<path d="M61.8704 69.9835C61.8704 69.6623 61.9962 69.3543 62.2202 69.1272C62.4443 68.9001 62.7481 68.7725 63.0649 68.7725H69.0224C71.0563 68.7725 72.7153 69.2932 73.9776 70.3126C75.2399 71.3319 75.8705 72.8244 75.8705 74.7911C75.8705 76.8055 75.1929 78.3456 73.8607 79.3882C72.5284 80.4065 70.8224 80.9283 68.7426 80.9283H67.6693C67.3525 80.9283 67.0487 81.0559 66.8247 81.2831C66.6006 81.5102 66.4748 81.8182 66.4748 82.1394V86.1149C66.4748 86.4361 66.3489 86.7441 66.1249 86.9712C65.9009 87.1984 65.5971 87.3259 65.2802 87.3259H63.0649C62.7482 87.3257 62.4445 87.198 62.2206 86.9709C61.9966 86.7439 61.8707 86.436 61.8704 86.1149V69.9835ZM66.4748 75.7363C66.4748 76.0574 66.6006 76.3655 66.8247 76.5926C67.0487 76.8197 67.3525 76.9473 67.6693 76.9473H68.6715C70.3787 76.9473 71.2432 76.2825 71.2432 74.9806C71.2432 73.5823 70.3787 72.8754 68.6486 72.8754H67.665C67.3482 72.8754 67.0443 73.003 66.8203 73.2301C66.5963 73.4572 66.4704 73.7652 66.4704 74.0864L66.4748 75.7363Z" fill="white"/>
<path d="M41.9844 41.0503C42.5206 41.0503 43.035 40.8346 43.4144 40.4505C43.7939 40.0664 44.0076 39.5453 44.0084 39.0016V16.4206H48.0577C49.6594 16.4206 51.2252 15.9391 52.5569 15.0369C53.8887 14.1347 54.9267 12.8525 55.5397 11.3522C56.1526 9.852 56.313 8.20118 56.0005 6.60854C55.688 5.0159 54.9167 3.55297 53.7842 2.40474C52.6516 1.25651 51.2086 0.474558 49.6376 0.157762C48.0667 -0.159034 46.4383 0.00355739 44.9585 0.624975C43.4787 1.24639 42.2139 2.29873 41.324 3.6489C40.4342 4.99907 39.9592 6.58645 39.9592 8.21029V12.3154H35.9154V8.21029C35.9154 6.58645 35.4405 4.99907 34.5506 3.6489C33.6607 2.29873 32.3959 1.24639 30.9161 0.624975C29.4363 0.00355739 27.808 -0.159034 26.237 0.157762C24.6661 0.474558 23.2231 1.25651 22.0905 2.40474C20.9579 3.55297 20.1866 5.0159 19.8741 6.60854C19.5616 8.20118 19.722 9.852 20.335 11.3522C20.9479 12.8525 21.9859 14.1347 23.3177 15.0369C24.6495 15.9391 26.2152 16.4206 27.817 16.4206H31.8662V39.0016C31.8785 39.5378 32.0972 40.0477 32.4755 40.4225C32.8539 40.7973 33.3619 41.0071 33.8908 41.0071C34.4198 41.0071 34.9277 40.7973 35.3061 40.4225C35.6844 40.0477 35.9032 39.5378 35.9154 39.0016V16.4206H39.9592V39.0016C39.9604 39.5454 40.1742 40.0665 40.5539 40.4506C40.9336 40.8346 41.448 41.0503 41.9844 41.0503ZM44.0084 8.21029C44.0084 7.39837 44.2459 6.60468 44.6909 5.9296C45.1358 5.25451 45.7682 4.72834 46.5081 4.41763C47.248 4.10692 48.0622 4.02563 48.8476 4.18403C49.6331 4.34242 50.3546 4.7334 50.9209 5.30752C51.4872 5.88163 51.8729 6.6131 52.0291 7.40942C52.1853 8.20574 52.1052 9.03114 51.7987 9.78126C51.4922 10.5314 50.9732 11.1725 50.3073 11.6236C49.6414 12.0747 48.8585 12.3154 48.0577 12.3154H44.0084V8.21029ZM31.8618 12.3154H27.8126C27.0117 12.3154 26.2289 12.0747 25.563 11.6236C24.8971 11.1725 24.3781 10.5314 24.0716 9.78126C23.7651 9.03114 23.6849 8.20574 23.8412 7.40942C23.9974 6.6131 24.3831 5.88163 24.9494 5.30752C25.5157 4.7334 26.2372 4.34242 27.0226 4.18403C27.8081 4.02563 28.6223 4.10692 29.3622 4.41763C30.1021 4.72834 30.7345 5.25451 31.1794 5.9296C31.6244 6.60468 31.8618 7.39837 31.8618 8.21029V12.3154Z" fill="white"/>
<path d="M60.5475 33.6034C59.8885 32.7804 58.9348 32.2557 57.8951 32.144C56.8554 32.0322 55.8143 32.3427 54.9999 33.0073C50.2516 36.9091 44.3227 39.0341 38.2106 39.0248C33.15 39.0249 28.1934 37.5681 23.9175 34.824C19.6416 32.0798 16.2222 28.1612 14.0572 23.5239C13.8284 23.0313 13.5055 22.5895 13.1072 22.2242C12.7089 21.8589 12.2431 21.5772 11.7368 21.3955C11.2305 21.2137 10.6937 21.1355 10.1574 21.1654C9.62114 21.1952 9.096 21.3325 8.61236 21.5694C7.67747 22.0267 6.95766 22.8387 6.60855 23.8297C6.25945 24.8208 6.3091 25.9114 6.74677 26.8656C12.2889 38.8509 24.2956 47.1509 38.216 47.1509C46.1684 47.1631 53.8821 44.3966 60.0578 39.3173C60.4596 38.9845 60.7927 38.5747 61.0382 38.1114C61.2836 37.648 61.4366 37.1401 61.4884 36.6168C61.5401 36.0934 61.4897 35.5649 61.3398 35.0613C61.19 34.5578 60.9438 34.0891 60.6152 33.682L60.5475 33.6034Z" fill="white"/>
<path d="M67.4863 22.2474C67.0135 22.0091 66.499 21.8675 65.9723 21.8309C65.4455 21.7942 64.9167 21.8631 64.4162 22.0337C63.9157 22.2043 63.4533 22.4733 63.0554 22.8252C62.6575 23.177 62.3319 23.605 62.0972 24.0845C61.8174 24.6511 61.5183 25.2051 61.1999 25.7465C60.7299 26.5422 60.542 27.4768 60.6672 28.3956C60.7924 29.3143 61.2232 30.1622 61.8884 30.799C63.7464 32.5718 66.7573 32.1685 68.0634 29.9491C68.4911 29.2223 68.8918 28.4792 69.2656 27.7198C69.5038 27.2422 69.6468 26.7216 69.6862 26.1879C69.7257 25.6542 69.661 25.1178 69.4957 24.6094C69.3304 24.1011 69.0679 23.6308 68.7231 23.2255C68.3783 22.8202 67.958 22.4878 67.4863 22.2474Z" fill="white"/>
<path d="M13.7143 22.9363C13.7143 22.9363 11.7951 32.9758 19.5176 41.6238C19.5176 41.6238 12.1023 37.5508 7.23989 27.9023C7.23989 27.9023 4.89014 24.7999 7.82023 22.082C8.28529 21.6776 8.83922 21.3923 9.43555 21.2499C9.79406 21.1692 10.1619 21.1394 10.5285 21.1612C10.9307 21.1777 11.3285 21.2523 11.7099 21.3828C12.1634 21.5455 12.5857 21.7865 12.958 22.0953C13.2468 22.3393 13.5013 22.6222 13.7143 22.9363Z" fill="white"/>
<path d="M9.31964 21.2817C9.36215 23.4686 9.67872 25.641 10.2617 27.7469C12.3022 35.0907 17.0837 39.6291 19.5165 41.6268C19.0629 41.3631 18.4531 40.9886 17.7624 40.4945C16.9769 39.9262 16.2241 39.3128 15.5077 38.6574C14.511 37.771 13.7875 37.0364 13.4825 36.7195C13.0825 36.3051 12.3328 35.5074 11.4738 34.4503C10.348 33.0607 9.32516 31.5886 8.41362 30.046C8.20815 29.7092 8.00341 29.3628 7.7994 29.0067C7.55386 28.5842 7.3218 28.1687 7.10322 27.7602C6.81576 27.319 6.60299 26.8321 6.4737 26.3198C6.28928 25.6584 6.27386 24.9602 6.4289 24.2911C6.53362 23.8697 6.70844 23.4695 6.94584 23.1077C6.97644 23.0601 7.00267 23.0147 7.00267 23.0147C7.13964 22.7992 7.29546 22.5968 7.46825 22.4097C7.91298 21.9493 8.45213 21.5937 9.04751 21.3682C9.15898 21.325 9.25516 21.2984 9.31964 21.2817Z" fill="white"/>
<path d="M46.3751 56.0089H29.4984C28.5513 56.0062 27.6438 55.6237 26.9742 54.9448C26.3045 54.2659 25.9272 53.3458 25.9246 52.3857C25.9274 51.4258 26.3049 50.5061 26.9746 49.8274C27.6442 49.1487 28.5515 48.7663 29.4984 48.7637H46.3751C47.3203 48.7742 48.2247 49.1554 48.8986 49.8274C49.2307 50.1629 49.494 50.5617 49.6737 51.0007C49.8534 51.4397 49.9458 51.9104 49.9456 52.3857C49.9431 53.3453 49.5661 54.2648 48.8972 54.9436C48.2282 55.6224 47.3216 56.0054 46.3751 56.0089Z" fill="white"/>
<path d="M42.5629 57.2969H33.3082C31.6676 57.2969 30.3376 58.6452 30.3376 60.3084C30.3376 61.9717 31.6676 63.32 33.3082 63.32H42.5629C44.2035 63.32 45.5335 61.9717 45.5335 60.3084C45.5335 58.6452 44.2035 57.2969 42.5629 57.2969Z" fill="white"/>
</svg>
