<svg width="70" height="81" viewBox="0 0 70 81" fill="none" xmlns="http://www.w3.org/2000/svg">
<path d="M5.4251 73.2867L0.0912045 64.0273C0.0315564 63.9235 0.000101099 63.8058 2.43296e-07 63.6858C-0.000100612 63.5659 0.0311566 63.4481 0.0906299 63.3442C0.150103 63.2403 0.235697 63.154 0.338808 63.0939C0.441919 63.0339 0.558914 63.0022 0.678033 63.0021H3.91063C4.03133 63.0021 4.14983 63.0346 4.25389 63.0962C4.35794 63.1577 4.44377 63.2462 4.5025 63.3523L7.10593 68.0419C7.16482 68.1475 7.25061 68.2355 7.35445 68.2967C7.45829 68.3579 7.57646 68.3901 7.69679 68.3901C7.81712 68.3901 7.93528 68.3579 8.03913 68.2967C8.14297 68.2355 8.22875 68.1475 8.28765 68.0419L10.9274 63.3452C10.9866 63.24 11.0725 63.1526 11.1763 63.0918C11.2802 63.031 11.3981 62.999 11.5182 62.9991H14.644C14.7631 62.9993 14.8802 63.031 14.9833 63.0912C15.0864 63.1514 15.1719 63.2378 15.2313 63.3418C15.2907 63.4459 15.3218 63.5638 15.3216 63.6838C15.3213 63.8038 15.2896 63.9216 15.2298 64.0253L9.87975 73.2867C9.81947 73.3912 9.78781 73.51 9.788 73.6308V79.3151C9.78773 79.4962 9.71615 79.6698 9.58895 79.7979C9.46175 79.926 9.2893 79.998 9.10941 79.9983H6.19443C6.01454 79.998 5.84209 79.926 5.71489 79.7979C5.58769 79.6698 5.51611 79.4962 5.51584 79.3151V73.6308C5.51624 73.5101 5.48494 73.3914 5.4251 73.2867Z" fill="#0A4771"/>
<path d="M17.6777 79.0844V63.9204C17.6777 63.6781 17.7733 63.4457 17.9435 63.2744C18.1137 63.1031 18.3445 63.0068 18.5852 63.0068H21.0344C21.275 63.0068 21.5058 63.1031 21.676 63.2744C21.8462 63.4457 21.9418 63.6781 21.9418 63.9204V67.4568C21.9392 67.6523 21.999 67.8434 22.1123 68.0021C22.2256 68.1608 22.3865 68.2788 22.5713 68.3387C22.7561 68.3985 22.9551 68.3971 23.1391 68.3347C23.3231 68.2723 23.4823 68.1521 23.5934 67.9918L26.8905 63.3844C26.9747 63.2665 27.0855 63.1705 27.2139 63.1043C27.3422 63.0381 27.4844 63.0036 27.6286 63.0038H30.3833C30.5517 63.0021 30.7173 63.0476 30.8615 63.1352C31.0057 63.2229 31.1229 63.3492 31.1998 63.5001C31.2767 63.651 31.3104 63.8204 31.2971 63.9895C31.2838 64.1586 31.224 64.3206 31.1244 64.4573L26.7474 70.5477C26.6367 70.7023 26.5765 70.8877 26.575 71.0783C26.5736 71.2689 26.631 71.4552 26.7393 71.6115L31.5741 78.5565C31.6708 78.6937 31.728 78.855 31.7395 79.0228C31.7509 79.1905 31.7162 79.3582 31.639 79.5074C31.5619 79.6565 31.4453 79.7813 31.3022 79.8681C31.1591 79.9548 30.995 80.0001 30.8279 79.9989H27.7819C27.6322 79.9994 27.4847 79.9625 27.3526 79.8917C27.2205 79.8209 27.1078 79.7182 27.0246 79.5929L23.6146 74.4577C23.5072 74.2926 23.3496 74.1669 23.1654 74.0995C22.9812 74.032 22.7802 74.0265 22.5926 74.0836C22.4049 74.1408 22.2407 74.2575 22.1245 74.4165C22.0083 74.5754 21.9463 74.7679 21.9479 74.9653V79.0844C21.9479 79.3267 21.8523 79.559 21.6821 79.7304C21.5119 79.9017 21.2811 79.9979 21.0404 79.9979H18.5882C18.4688 79.9983 18.3505 79.975 18.24 79.9293C18.1296 79.8835 18.0292 79.8163 17.9446 79.7314C17.86 79.6466 17.7929 79.5457 17.7471 79.4347C17.7013 79.3236 17.6777 79.2046 17.6777 79.0844Z" fill="#0A4771"/>
<path d="M37.4048 80.0016H35.1623C34.8949 80.0016 34.6385 79.8946 34.4494 79.7043C34.2603 79.5139 34.1541 79.2557 34.1541 78.9865V64.0235C34.1541 63.7543 34.2603 63.4961 34.4494 63.3057C34.6385 63.1154 34.8949 63.0084 35.1623 63.0084H37.4048C37.6722 63.0084 37.9287 63.1154 38.1178 63.3057C38.3069 63.4961 38.4131 63.7543 38.4131 64.0235V78.9825C38.4136 79.1161 38.3879 79.2485 38.3375 79.3721C38.2871 79.4958 38.2129 79.6081 38.1192 79.7028C38.0255 79.7975 37.9142 79.8727 37.7916 79.9239C37.669 79.9752 37.5375 80.0016 37.4048 80.0016Z" fill="#0A4771"/>
<path d="M41.8943 64.1132C41.8943 63.8189 42.0104 63.5367 42.2171 63.3287C42.4238 63.1206 42.7041 63.0037 42.9964 63.0037H48.4926C50.368 63.0037 51.8986 63.4808 53.0632 64.4147C54.2278 65.3485 54.8096 66.7158 54.8096 68.5175C54.8096 70.3629 54.1844 71.7739 52.9553 72.729C51.7262 73.6619 50.1522 74.14 48.2335 74.14H47.2443C46.952 74.14 46.6717 74.2568 46.465 74.4649C46.2584 74.673 46.1422 74.9552 46.1422 75.2494V78.8915C46.142 79.1856 46.0258 79.4677 45.8192 79.6757C45.6125 79.8837 45.3324 80.0007 45.0402 80.0009H42.9964C42.7041 80.0009 42.4238 79.884 42.2171 79.676C42.0104 79.4679 41.8943 79.1857 41.8943 78.8915V64.1132ZM46.1422 69.3834C46.1422 69.6776 46.2584 69.9598 46.465 70.1679C46.6717 70.376 46.952 70.4928 47.2443 70.4928H48.1689C49.7429 70.4928 50.5404 69.8838 50.5404 68.6911C50.5404 67.4101 49.7429 66.7625 48.1467 66.7625H47.2443C46.952 66.7625 46.6717 66.8794 46.465 67.0874C46.2584 67.2955 46.1422 67.5777 46.1422 67.872V69.3834Z" fill="#0A4771"/>
<path d="M57.0806 64.1132C57.0806 63.8189 57.1967 63.5367 57.4034 63.3287C57.61 63.1206 57.8903 63.0037 58.1826 63.0037H63.6789C65.5553 63.0037 67.0859 63.4808 68.2505 64.4147C69.4151 65.3485 69.9968 66.7158 69.9968 68.5175C69.9968 70.3629 69.3717 71.7739 68.1426 72.729C66.9135 73.6619 65.3395 74.14 63.4207 74.14H62.4306C62.1383 74.14 61.858 74.2568 61.6513 74.4649C61.4446 74.673 61.3285 74.9552 61.3285 75.2494V78.8915C61.3285 79.1857 61.2124 79.4679 61.0057 79.676C60.7991 79.884 60.5187 80.0009 60.2265 80.0009H58.1826C57.8904 80.0007 57.6103 79.8837 57.4036 79.6757C57.197 79.4677 57.0808 79.1856 57.0806 78.8915V64.1132ZM61.3285 69.3834C61.3285 69.6776 61.4446 69.9598 61.6513 70.1679C61.858 70.376 62.1383 70.4928 62.4306 70.4928H63.3552C64.9302 70.4928 65.7277 69.8838 65.7277 68.6911C65.7277 67.4101 64.9302 66.7625 63.334 66.7625H62.4266C62.1343 66.7625 61.854 66.8794 61.6473 67.0874C61.4406 67.2955 61.3245 67.5777 61.3245 67.872L61.3285 69.3834Z" fill="#0A4771"/>
<path d="M38.7339 37.607C39.2287 37.607 39.7032 37.4093 40.0533 37.0575C40.4034 36.7056 40.6005 36.2282 40.6013 35.7301V15.0432H44.337C45.8148 15.0432 47.2593 14.6021 48.488 13.7756C49.7166 12.9491 50.6743 11.7744 51.2398 10.4C51.8053 9.0256 51.9532 7.51326 51.665 6.05421C51.3767 4.59516 50.6651 3.25494 49.6202 2.20303C48.5753 1.15111 47.244 0.434751 45.7946 0.144529C44.3453 -0.145694 42.8431 0.00325899 41.4778 0.572551C40.1126 1.14184 38.9457 2.10591 38.1247 3.34283C37.3038 4.57975 36.8656 6.03397 36.8656 7.5216V11.2824H33.1349V7.5216C33.1349 6.03397 32.6967 4.57975 31.8757 3.34283C31.0547 2.10591 29.8878 1.14184 28.5226 0.572551C27.1574 0.00325899 25.6551 -0.145694 24.2058 0.144529C22.7564 0.434751 21.4251 1.15111 20.3802 2.20303C19.3353 3.25494 18.6237 4.59516 18.3355 6.05421C18.0472 7.51326 18.1951 9.0256 18.7606 10.4C19.3261 11.7744 20.2838 12.9491 21.5124 13.7756C22.7411 14.6021 24.1857 15.0432 25.6634 15.0432H29.3991V35.7301C29.4105 36.2213 29.6122 36.6885 29.9613 37.0318C30.3103 37.3751 30.779 37.5674 31.267 37.5674C31.755 37.5674 32.2236 37.3751 32.5727 37.0318C32.9217 36.6885 33.1235 36.2213 33.1349 35.7301V15.0432H36.8656V35.7301C36.8666 36.2283 37.0639 36.7057 37.4142 37.0575C37.7645 37.4094 38.2391 37.607 38.7339 37.607ZM40.6013 7.5216C40.6013 6.77779 40.8204 6.05068 41.2309 5.43221C41.6414 4.81375 42.2248 4.33172 42.9074 4.04708C43.59 3.76243 44.3412 3.68795 45.0658 3.83307C45.7905 3.97818 46.4561 4.33636 46.9786 4.86232C47.5011 5.38827 47.8568 6.05838 48.001 6.78791C48.1451 7.51743 48.0712 8.2736 47.7884 8.9608C47.5057 9.64799 47.0268 10.2354 46.4125 10.6486C45.7982 11.0618 45.0759 11.2824 44.337 11.2824H40.6013V7.5216ZM29.3951 11.2824H25.6593C24.9205 11.2824 24.1982 11.0618 23.5839 10.6486C22.9695 10.2354 22.4907 9.64799 22.208 8.9608C21.9252 8.2736 21.8512 7.51743 21.9954 6.78791C22.1395 6.05838 22.4953 5.38827 23.0178 4.86232C23.5402 4.33636 24.2059 3.97818 24.9305 3.83307C25.6552 3.68795 26.4063 3.76243 27.089 4.04708C27.7716 4.33172 28.355 4.81375 28.7655 5.43221C29.176 6.05068 29.3951 6.77779 29.3951 7.5216V11.2824Z" fill="#E5BC26"/>
<path d="M55.86 30.7847C55.2521 30.0308 54.3722 29.5501 53.413 29.4477C52.4538 29.3454 51.4933 29.6297 50.7419 30.2386C46.3612 33.8131 40.8914 35.7599 35.2525 35.7514C30.5836 35.7515 26.0108 34.4169 22.0659 31.9029C18.1211 29.389 14.9665 25.799 12.9691 21.5507C12.7579 21.0994 12.46 20.6947 12.0926 20.36C11.7251 20.0254 11.2954 19.7673 10.8283 19.6008C10.3612 19.4343 9.86599 19.3627 9.37121 19.39C8.87644 19.4174 8.39195 19.5431 7.94576 19.7601C7.08324 20.1791 6.41916 20.9229 6.09708 21.8309C5.77501 22.7388 5.82081 23.7379 6.2246 24.6121C11.3377 35.592 22.4148 43.1958 35.2575 43.1958C42.5942 43.207 49.7107 40.6726 55.4083 36.0194C55.779 35.7145 56.0863 35.3391 56.3127 34.9145C56.5392 34.49 56.6803 34.0248 56.7281 33.5453C56.7758 33.0659 56.7293 32.5817 56.5911 32.1204C56.4528 31.659 56.2257 31.2297 55.9225 30.8568L55.86 30.7847Z" fill="#0A4771"/>
<path d="M62.2616 20.3811C61.8254 20.1627 61.3508 20.033 60.8648 19.9994C60.3788 19.9658 59.891 20.029 59.4292 20.1853C58.9675 20.3416 58.5408 20.588 58.1737 20.9103C57.8066 21.2327 57.5062 21.6247 57.2897 22.064C57.0316 22.5831 56.7556 23.0906 56.4619 23.5866C56.0283 24.3156 55.8549 25.1718 55.9704 26.0135C56.0859 26.8552 56.4834 27.632 57.0971 28.2153C58.8112 29.8394 61.5891 29.4699 62.794 27.4367C63.1886 26.7709 63.5583 26.0901 63.9031 25.3944C64.1229 24.9569 64.2548 24.4799 64.2912 23.991C64.3276 23.502 64.2679 23.0106 64.1154 22.5449C63.963 22.0793 63.7207 21.6484 63.4026 21.2771C63.0845 20.9058 62.6968 20.6013 62.2616 20.3811Z" fill="#E5BC26"/>
<path d="M12.6523 21.0121C12.6523 21.0121 10.8818 30.2096 18.0064 38.1321C18.0064 38.1321 11.1651 34.4008 6.67918 25.5616C6.67918 25.5616 4.51134 22.7195 7.21458 20.2295C7.64363 19.8591 8.15468 19.5977 8.70484 19.4672C9.03559 19.3933 9.37493 19.366 9.71314 19.386C10.0842 19.4011 10.4512 19.4695 10.8031 19.589C11.2215 19.738 11.6111 19.9588 11.9546 20.2417C12.221 20.4652 12.4558 20.7244 12.6523 21.0121Z" fill="#E5BC26"/>
<path d="M8.5979 19.4963C8.63711 21.4997 8.92917 23.4899 9.46705 25.4192C11.3495 32.147 15.7608 36.3047 18.0053 38.1348C17.5869 37.8932 17.0242 37.5501 16.387 37.0974C15.6623 36.5768 14.9678 36.0149 14.3069 35.4145C13.3873 34.6024 12.7198 33.9294 12.4385 33.6391C12.0695 33.2595 11.3778 32.5286 10.5852 31.5603C9.54663 30.2872 8.60298 28.9386 7.76202 27.5254C7.57246 27.2168 7.38357 26.8994 7.19535 26.5733C6.96882 26.1862 6.75473 25.8056 6.55307 25.4313C6.28786 25.0271 6.09157 24.5811 5.97229 24.1118C5.80214 23.5058 5.78791 22.8662 5.93095 22.2532C6.02756 21.8672 6.18885 21.5005 6.40787 21.1691C6.43611 21.1254 6.46031 21.0838 6.46031 21.0838C6.58667 20.8865 6.73043 20.701 6.88984 20.5296C7.30014 20.1079 7.79755 19.7821 8.34683 19.5755C8.44968 19.5359 8.53841 19.5115 8.5979 19.4963Z" fill="#EFC337"/>
<path d="M42.7847 51.311H27.2146C26.3409 51.3086 25.5036 50.9581 24.8858 50.3361C24.268 49.7142 23.9199 48.8713 23.9175 47.9918C23.9201 47.1124 24.2684 46.2697 24.8862 45.648C25.504 45.0263 26.3411 44.6759 27.2146 44.6735H42.7847C43.6567 44.6831 44.4912 45.0324 45.1129 45.648C45.4192 45.9554 45.6622 46.3207 45.828 46.7229C45.9937 47.1251 46.079 47.5563 46.0788 47.9918C46.0765 48.8708 45.7287 49.7132 45.1116 50.3351C44.4944 50.9569 43.6579 51.3078 42.7847 51.311Z" fill="#0A4771"/>
<path d="M39.2676 52.4907H30.7293C29.2158 52.4907 27.9888 53.7259 27.9888 55.2496C27.9888 56.7733 29.2158 58.0085 30.7293 58.0085H39.2676C40.7811 58.0085 42.0081 56.7733 42.0081 55.2496C42.0081 53.7259 40.7811 52.4907 39.2676 52.4907Z" fill="#0A4771"/>
</svg>
