<svg width="24" height="24" viewBox="0 0 24 24" fill="none" xmlns="http://www.w3.org/2000/svg">
<g opacity="0.5">
<path d="M21.5879 7.03429C21.4735 6.64236 21.2507 6.28505 20.9414 5.99789C20.6322 5.71072 20.2474 5.5037 19.8253 5.3974C18.2603 5 12 5 12 5C12 5 5.7396 5 4.17465 5.38249C3.7529 5.49433 3.36924 5.70502 3.06055 5.9943C2.75185 6.28358 2.52852 6.64172 2.412 7.03429C2 8.48713 2 11.5003 2 11.5003C2 11.5003 2 14.5283 2.412 15.9662C2.52651 16.358 2.74944 16.7152 3.05865 17.0023C3.36787 17.2893 3.75261 17.4963 4.17465 17.6026C5.75621 18 12 18 12 18C12 18 18.2575 18 19.8253 17.6175C20.2473 17.5113 20.6321 17.3043 20.9413 17.0172C21.2505 16.7302 21.4735 16.373 21.5879 15.9811C21.9999 14.5283 21.9999 11.5152 21.9999 11.5152C21.9999 11.5152 22.0165 8.48713 21.5879 7.03429Z" fill="#9E9E9E"/>
<path d="M10.0059 14.2839L15.2113 11.5006L10.0059 8.71729V14.2839Z" fill="#3D3D3D"/>
</g>
</svg>
